<?xml version="1.0" encoding="UTF-8"?>
<svg id="Layer_1" data-name="Layer 1" xmlns="http://www.w3.org/2000/svg" viewBox="0 0 100 100">
  <defs>
    <style>
      .cls-1 {
        fill: #fff;
      }
    </style>
  </defs>
  <path class="cls-1" d="m89.43,89.49l-13.37-21.04-1.55,7.52-15.24-10.55c.25-.8.38-1.65.38-2.54,0-3.71-2.34-6.87-5.63-8.09l1.85-37.82c3.7-.98,6.43-4.34,6.43-8.35,0-4.77-3.87-8.64-8.64-8.64s-8.64,3.87-8.64,8.64c0,3.71,2.34,6.87,5.63,8.09l-1.85,37.82c-.39.1-.77.22-1.13.37l-8.09-9.52c.83-1.33,1.32-2.89,1.32-4.58,0-4.77-3.87-8.64-8.64-8.64s-8.64,3.87-8.64,8.64,3.87,8.64,8.64,8.64c1.18,0,2.31-.24,3.34-.67l8.09,9.52c-.83,1.33-1.32,2.89-1.32,4.58,0,1.26.28,2.46.76,3.54l-19.52,17.48c-1.29-.76-2.78-1.2-4.39-1.2-4.77,0-8.64,3.87-8.64,8.64s3.87,8.64,8.64,8.64,8.64-3.87,8.64-8.64c0-1.26-.28-2.46-.77-3.54l19.52-17.48c1.29.76,2.78,1.2,4.39,1.2,1.99,0,3.82-.68,5.28-1.81l15.25,10.55-6.49,4.11,24.4,5.1Z"/>
</svg>