<?xml version="1.0" encoding="UTF-8"?>
<svg id="Layer_1" data-name="Layer 1" xmlns="http://www.w3.org/2000/svg" viewBox="0 0 100 100">
  <defs>
    <style>
      .cls-1 {
        fill: #fff;
      }

      .cls-2 {
        fill: #201e5a;
      }
    </style>
  </defs>
  <path class="cls-2" d="m100,50c0,27.61-22.39,50-50,50S0,77.61,0,50c0-1.46.06-2.9.19-4.33,2.94-5.5,8.46-13.81,14.58-12.95,12.6,1.78,10.12,38.2,21.34,37.31,9.76-.78,5.86-23.94,13.89-24.89,8.27-.98,9.68,17.55,18.19,16.72,8.96-.88,4.6-28.88,14.65-31.78,5.34-1.54,11.83,3.96,15.73,8.03.93,3.81,1.43,7.8,1.43,11.9Z"/>
  <path class="cls-1" d="m50,4.46c5.24,0,10.38.88,15.26,2.62,4.72,1.68,9.12,4.12,13.06,7.26,3.91,3.11,7.26,6.81,9.97,11,.13.2.26.4.38.6-1.34-.4-2.64-.59-3.91-.59-1.09,0-2.15.15-3.17.44-3.7,1.07-6.49,4.1-8.28,9-1.29,3.52-2,7.64-2.68,11.63-.51,2.94-.98,5.73-1.64,7.94-.28.94-.54,1.61-.77,2.08-.32.67-1.2.84-1.73.32-.13-.13-.27-.28-.42-.45-1.08-1.25-2.16-3.2-3.21-5.09-2.62-4.71-5.88-10.57-12.24-10.57-.38,0-.77.02-1.15.07-2.33.28-5.55,1.63-7.62,6.52-1.08,2.54-1.71,5.62-2.33,8.6-.59,2.89-1.21,5.87-2.14,7.89-.82,1.79-1.39,1.84-1.64,1.86-.02,0-.04,0-.05,0-.02,0-.05-.01-.06-.01h0s-1.03.06-2.17-3.48c-1.16-2.8-2.1-6.5-3.11-10.42-1.24-4.84-2.52-9.85-4.42-13.96-2.6-5.62-6.15-8.79-10.57-9.41-.5-.07-1.01-.11-1.51-.11-1.46,0-2.91.29-4.34.86,2.41-4.66,5.64-8.91,9.59-12.55,8.43-7.78,19.4-12.06,30.87-12.06m0-4.46C23.84,0,2.38,20.09.18,45.67c2.8-5.24,7.93-13.01,13.69-13.01.29,0,.59.02.89.06,12.44,1.76,10.18,37.32,20.94,37.32.13,0,.27,0,.4-.02,9.76-.78,5.86-23.94,13.89-24.89.21-.03.42-.04.63-.04,7.55,0,9.2,16.78,17.01,16.78.18,0,.37,0,.55-.03,8.96-.88,4.6-28.88,14.65-31.78.63-.18,1.27-.27,1.93-.27,4.9,0,10.36,4.71,13.8,8.29C93.24,16.23,73.51,0,50,0h0Z"/>
</svg>