<?xml version="1.0" encoding="UTF-8"?>
<svg id="Layer_1" data-name="Layer 1" xmlns="http://www.w3.org/2000/svg" viewBox="0 0 100 100">
  <defs>
    <style>
      .cls-1 {
        fill: #fff;
      }
    </style>
  </defs>
  <path class="cls-1" d="m89.05,44.5h-4.46v-3.94c0-8.69-7.07-15.76-15.76-15.76h-14.76l-2.53-18.56c1.05-.55,1.77-1.66,1.77-2.93,0-1.83-1.48-3.31-3.31-3.31s-3.31,1.48-3.31,3.31c0,1.27.72,2.38,1.77,2.93l-2.53,18.56h-14.76c-8.69,0-15.76,7.07-15.76,15.76v3.94h-4.46c-.72,0-2.93,0-2.93,14.89s2.2,14.9,2.93,14.9h4.46v3.94c0,8.69,7.07,15.76,15.76,15.76h37.66c8.69,0,15.76-7.07,15.76-15.76v-3.94h4.46c.73,0,2.93,0,2.93-14.9s-2.21-14.89-2.93-14.89Zm-10.1,33.72c0,5.58-4.54,10.11-10.11,10.11H31.17c-5.58,0-10.11-4.54-10.11-10.11v-37.66c0-5.58,4.54-10.11,10.11-10.11h37.66c5.58,0,10.11,4.54,10.11,10.11v37.66Z"/>
  <path class="cls-1" d="m50,43.25c-8.91,0-16.15,7.25-16.15,16.15s7.25,16.15,16.15,16.15,16.15-7.25,16.15-16.15-7.25-16.15-16.15-16.15Zm0,27.53c-6.27,0-11.38-5.1-11.38-11.38s5.1-11.38,11.38-11.38,11.38,5.1,11.38,11.38-5.1,11.38-11.38,11.38Z"/>
  <path class="cls-1" d="m70.41,34.94c-1.83,0-3.31,1.48-3.31,3.31s1.48,3.31,3.31,3.31,3.31-1.48,3.31-3.31-1.48-3.31-3.31-3.31Z"/>
</svg>