<?xml version="1.0" encoding="UTF-8"?>
<svg id="Layer_1" data-name="Layer 1" xmlns="http://www.w3.org/2000/svg" viewBox="0 0 100 100">
  <defs>
    <style>
      .cls-1 {
        fill: #fff;
      }
    </style>
  </defs>
  <rect class="cls-1" x="0" y="29.63" width="8.14" height="8.14"/>
  <rect class="cls-1" x="8.15" y="21.48" width="8.14" height="8.15"/>
  <polygon class="cls-1" points="8.15 54.07 16.29 54.07 16.29 45.93 8.15 45.93 8.15 45.93 0 45.93 0 54.07 8.15 54.07 8.15 54.07"/>
  <path class="cls-1" d="m98.15,45.53l-22.18-22.19c-1.08-1.07-2.36-1.66-3.67-1.81-.25-.03-.51-.05-.76-.05h-22.67v8.15h-16.29v-8.15h-8.14v8.15h-8.15v16.29h8.15v-8.15h8.14v16.3h16.29v8.15h-16.29v8.14h-8.14v8.15h16.29v-8.15h16.29v-16.3h8.15v16.3h-8.15v8.15h14.52c.26,0,.51-.02.77-.05,1.3-.15,2.59-.74,3.67-1.82l22.18-22.18c2.47-2.47,2.47-6.48,0-8.94Zm-32.98-7.75h-8.15v8.14h-8.14s-8.14,0-8.14,0v-8.15h8.14s8.14,0,8.14,0v-8.14h8.15v8.15Z"/>
  <polygon class="cls-1" points="24.44 62.22 24.44 70.37 16.29 70.37 16.29 78.52 0 78.52 0 70.37 8.15 70.37 8.15 62.22 24.44 62.22"/>
  <rect class="cls-1" x="24.44" y="54.08" width="8.14" height="8.14"/>
</svg>