<?xml version="1.0" encoding="UTF-8"?>
<svg id="Layer_1" data-name="Layer 1" xmlns="http://www.w3.org/2000/svg" viewBox="0 0 100 100">
  <defs>
    <style>
      .cls-1 {
        fill: #fff;
      }
    </style>
  </defs>
  <path class="cls-1" d="m50,4.46c10.41,0,20.2,3.42,28.33,9.88,4.1,3.26,7.59,7.2,10.33,11.6-1.33-.39-2.63-.59-3.89-.59-1.09,0-2.15.15-3.17.44-7.8,2.26-9.48,12.02-10.96,20.63-.51,2.94-.98,5.73-1.64,7.94-.63,2.14-1.18,2.86-1.38,3.07-1.32-.03-3.38-3.74-4.75-6.21-2.62-4.71-5.88-10.57-12.24-10.58-.38,0-.77.02-1.15.07-7,.83-8.57,8.42-9.95,15.12-.74,3.59-1.98,9.61-3.78,9.75-.02,0-.03,0-.05,0-.02,0-.03,0-.03,0h0s-.92-.39-2.2-3.49c-1.16-2.8-2.1-6.5-3.11-10.42-2.64-10.34-5.64-22.05-14.99-23.37-.5-.07-1.01-.11-1.51-.11-1.46,0-2.91.28-4.33.85,2.41-4.65,5.64-8.9,9.58-12.54,8.43-7.78,19.4-12.06,30.87-12.06m0-4.46C23.84,0,2.38,20.09.18,45.67c2.8-5.24,7.93-13.01,13.69-13.01.29,0,.59.02.89.06,12.44,1.76,10.18,37.32,20.94,37.32.13,0,.27,0,.4-.02,9.76-.78,5.86-23.94,13.89-24.89.21-.03.42-.04.63-.04,7.55,0,9.2,16.78,17.01,16.78.18,0,.37,0,.55-.03,8.96-.88,4.6-28.88,14.65-31.78.63-.18,1.27-.27,1.93-.27,4.9,0,10.36,4.71,13.8,8.29C93.24,16.23,73.51,0,50,0h0Z"/>
</svg>